<svg id="visual" viewBox="0 0 900 600" width="900" height="600" xmlns="http://www.w3.org/2000/svg" xmlns:xlink="http://www.w3.org/1999/xlink" version="1.1"><rect x="0" y="0" width="900" height="600" fill="#2B3A56"></rect><defs><linearGradient id="grad1_0" x1="33.3%" y1="100%" x2="100%" y2="0%"><stop offset="20%" stop-color="#2b3a56" stop-opacity="1"></stop><stop offset="80%" stop-color="#2b3a56" stop-opacity="1"></stop></linearGradient></defs><defs><linearGradient id="grad2_0" x1="0%" y1="100%" x2="66.7%" y2="0%"><stop offset="20%" stop-color="#2b3a56" stop-opacity="1"></stop><stop offset="80%" stop-color="#2b3a56" stop-opacity="1"></stop></linearGradient></defs><g transform="translate(900, 600)"><path d="M-405.6 0C-397 -51.6 -388.3 -103.1 -370.5 -153.5C-352.6 -203.8 -325.6 -252.9 -286.8 -286.8C-248 -320.7 -197.5 -339.4 -147.7 -356.6C-98 -373.9 -49 -389.8 0 -405.6L0 0Z" fill="#4361EE"></path></g><g transform="translate(0, 0)"><path d="M405.6 0C398.9 53.9 392.2 107.8 370.5 153.5C348.7 199.1 312 236.6 275.1 275.1C238.2 313.5 201.1 352.8 155.2 374.7C109.4 396.7 54.7 401.1 0 405.6L0 0Z" fill="#4361EE"></path></g></svg>