<svg id="visual" viewBox="0 0 900 600" width="900" height="600" xmlns="http://www.w3.org/2000/svg" xmlns:xlink="http://www.w3.org/1999/xlink" version="1.1"><rect x="0" y="0" width="900" height="600" fill="#2B3A56"></rect><defs><linearGradient id="grad1_0" x1="33.3%" y1="100%" x2="100%" y2="0%"><stop offset="20%" stop-color="#4361ee" stop-opacity="1"></stop><stop offset="80%" stop-color="#4361ee" stop-opacity="1"></stop></linearGradient></defs><defs><linearGradient id="grad1_1" x1="33.3%" y1="100%" x2="100%" y2="0%"><stop offset="20%" stop-color="#4361ee" stop-opacity="1"></stop><stop offset="80%" stop-color="#2f5bd0" stop-opacity="1"></stop></linearGradient></defs><defs><linearGradient id="grad1_2" x1="33.3%" y1="100%" x2="100%" y2="0%"><stop offset="20%" stop-color="#2555b1" stop-opacity="1"></stop><stop offset="80%" stop-color="#2f5bd0" stop-opacity="1"></stop></linearGradient></defs><defs><linearGradient id="grad1_3" x1="33.3%" y1="100%" x2="100%" y2="0%"><stop offset="20%" stop-color="#2555b1" stop-opacity="1"></stop><stop offset="80%" stop-color="#244c93" stop-opacity="1"></stop></linearGradient></defs><defs><linearGradient id="grad1_4" x1="33.3%" y1="100%" x2="100%" y2="0%"><stop offset="20%" stop-color="#284474" stop-opacity="1"></stop><stop offset="80%" stop-color="#244c93" stop-opacity="1"></stop></linearGradient></defs><defs><linearGradient id="grad1_5" x1="33.3%" y1="100%" x2="100%" y2="0%"><stop offset="20%" stop-color="#284474" stop-opacity="1"></stop><stop offset="80%" stop-color="#2b3a56" stop-opacity="1"></stop></linearGradient></defs><defs><linearGradient id="grad2_0" x1="0%" y1="100%" x2="66.7%" y2="0%"><stop offset="20%" stop-color="#4361ee" stop-opacity="1"></stop><stop offset="80%" stop-color="#4361ee" stop-opacity="1"></stop></linearGradient></defs><defs><linearGradient id="grad2_1" x1="0%" y1="100%" x2="66.7%" y2="0%"><stop offset="20%" stop-color="#2f5bd0" stop-opacity="1"></stop><stop offset="80%" stop-color="#4361ee" stop-opacity="1"></stop></linearGradient></defs><defs><linearGradient id="grad2_2" x1="0%" y1="100%" x2="66.7%" y2="0%"><stop offset="20%" stop-color="#2f5bd0" stop-opacity="1"></stop><stop offset="80%" stop-color="#2555b1" stop-opacity="1"></stop></linearGradient></defs><defs><linearGradient id="grad2_3" x1="0%" y1="100%" x2="66.7%" y2="0%"><stop offset="20%" stop-color="#244c93" stop-opacity="1"></stop><stop offset="80%" stop-color="#2555b1" stop-opacity="1"></stop></linearGradient></defs><defs><linearGradient id="grad2_4" x1="0%" y1="100%" x2="66.7%" y2="0%"><stop offset="20%" stop-color="#244c93" stop-opacity="1"></stop><stop offset="80%" stop-color="#284474" stop-opacity="1"></stop></linearGradient></defs><defs><linearGradient id="grad2_5" x1="0%" y1="100%" x2="66.7%" y2="0%"><stop offset="20%" stop-color="#2b3a56" stop-opacity="1"></stop><stop offset="80%" stop-color="#284474" stop-opacity="1"></stop></linearGradient></defs><g transform="translate(900, 600)"><path d="M-540.8 0C-480.6 -67.4 -420.3 -134.9 -382.8 -221C-345.2 -307.1 -330.4 -412 -270.4 -468.4C-210.4 -524.8 -105.2 -532.8 0 -540.8L0 0Z" fill="#2a3f65"></path><path d="M-450.7 0C-400.5 -56.2 -350.3 -112.4 -319 -184.2C-287.7 -255.9 -275.4 -343.3 -225.3 -390.3C-175.3 -437.3 -87.7 -444 0 -450.7L0 0Z" fill="#264883"></path><path d="M-360.6 0C-320.4 -45 -280.2 -89.9 -255.2 -147.3C-230.2 -204.8 -220.3 -274.6 -180.3 -312.2C-140.3 -349.9 -70.1 -355.2 0 -360.6L0 0Z" fill="#2451a2"></path><path d="M-270.4 0C-240.3 -33.7 -210.2 -67.4 -191.4 -110.5C-172.6 -153.6 -165.2 -206 -135.2 -234.2C-105.2 -262.4 -52.6 -266.4 0 -270.4L0 0Z" fill="#2958c1"></path><path d="M-180.3 0C-160.2 -22.5 -140.1 -45 -127.6 -73.7C-115.1 -102.4 -110.1 -137.3 -90.1 -156.1C-70.1 -174.9 -35.1 -177.6 0 -180.3L0 0Z" fill="#385edf"></path><path d="M-90.1 0C-80.1 -11.2 -70.1 -22.5 -63.8 -36.8C-57.5 -51.2 -55.1 -68.7 -45.1 -78.1C-35.1 -87.5 -17.5 -88.8 0 -90.1L0 0Z" fill="#4361ee"></path></g><g transform="translate(0, 0)"><path d="M540.8 0C532.2 104.2 523.6 208.3 468.4 270.4C413.2 332.5 311.3 352.5 225.5 390.6C139.7 428.6 69.8 484.7 0 540.8L0 0Z" fill="#2a3f65"></path><path d="M450.7 0C443.5 86.8 436.3 173.6 390.3 225.3C344.3 277.1 259.4 293.8 187.9 325.5C116.4 357.2 58.2 403.9 0 450.7L0 0Z" fill="#264883"></path><path d="M360.6 0C354.8 69.4 349.1 138.9 312.2 180.3C275.4 221.7 207.6 235 150.3 260.4C93.1 285.8 46.6 323.2 0 360.6L0 0Z" fill="#2451a2"></path><path d="M270.4 0C266.1 52.1 261.8 104.2 234.2 135.2C206.6 166.3 155.7 176.3 112.8 195.3C69.8 214.3 34.9 242.4 0 270.4L0 0Z" fill="#2958c1"></path><path d="M180.3 0C177.4 34.7 174.5 69.4 156.1 90.1C137.7 110.8 103.8 117.5 75.2 130.2C46.6 142.9 23.3 161.6 0 180.3L0 0Z" fill="#385edf"></path><path d="M90.1 0C88.7 17.4 87.3 34.7 78.1 45.1C68.9 55.4 51.9 58.8 37.6 65.1C23.3 71.4 11.6 80.8 0 90.1L0 0Z" fill="#4361ee"></path></g></svg>