<svg id="visual" viewBox="0 0 900 600" width="900" height="600" xmlns="http://www.w3.org/2000/svg" xmlns:xlink="http://www.w3.org/1999/xlink" version="1.1"><path d="M0 421L30 430.8C60 440.7 120 460.3 180 444.7C240 429 300 378 360 374.7C420 371.3 480 415.7 540 420.2C600 424.7 660 389.3 720 376.5C780 363.7 840 373.3 870 378.2L900 383L900 0L870 0C840 0 780 0 720 0C660 0 600 0 540 0C480 0 420 0 360 0C300 0 240 0 180 0C120 0 60 0 30 0L0 0Z" fill="#4361ee"></path><path d="M0 156L30 149C60 142 120 128 180 151.5C240 175 300 236 360 246.7C420 257.3 480 217.7 540 200.8C600 184 660 190 720 210C780 230 840 264 870 281L900 298L900 0L870 0C840 0 780 0 720 0C660 0 600 0 540 0C480 0 420 0 360 0C300 0 240 0 180 0C120 0 60 0 30 0L0 0Z" fill="#3b5cf1"></path></svg>