<svg id="visual" viewBox="0 0 900 600" width="900" height="600" xmlns="http://www.w3.org/2000/svg" xmlns:xlink="http://www.w3.org/1999/xlink" version="1.1"><path d="M0 378L21.5 388.3C43 398.7 86 419.3 128.8 414.8C171.7 410.3 214.3 380.7 257.2 370.7C300 360.7 343 370.3 385.8 373.7C428.7 377 471.3 374 514.2 374.7C557 375.3 600 379.7 642.8 377C685.7 374.3 728.3 364.7 771.2 365C814 365.3 857 375.7 878.5 380.8L900 386L900 601L878.5 601C857 601 814 601 771.2 601C728.3 601 685.7 601 642.8 601C600 601 557 601 514.2 601C471.3 601 428.7 601 385.8 601C343 601 300 601 257.2 601C214.3 601 171.7 601 128.8 601C86 601 43 601 21.5 601L0 601Z" fill="#2b3a56"></path><path d="M0 438L21.5 435.3C43 432.7 86 427.3 128.8 424.7C171.7 422 214.3 422 257.2 428.5C300 435 343 448 385.8 452.2C428.7 456.3 471.3 451.7 514.2 445.2C557 438.7 600 430.3 642.8 431.3C685.7 432.3 728.3 442.7 771.2 451.8C814 461 857 469 878.5 473L900 477L900 601L878.5 601C857 601 814 601 771.2 601C728.3 601 685.7 601 642.8 601C600 601 557 601 514.2 601C471.3 601 428.7 601 385.8 601C343 601 300 601 257.2 601C214.3 601 171.7 601 128.8 601C86 601 43 601 21.5 601L0 601Z" fill="#27467c"></path><path d="M0 456L21.5 458.3C43 460.7 86 465.3 128.8 465.5C171.7 465.7 214.3 461.3 257.2 464.3C300 467.3 343 477.7 385.8 474.8C428.7 472 471.3 456 514.2 457.2C557 458.3 600 476.7 642.8 488.5C685.7 500.3 728.3 505.7 771.2 507.8C814 510 857 509 878.5 508.5L900 508L900 601L878.5 601C857 601 814 601 771.2 601C728.3 601 685.7 601 642.8 601C600 601 557 601 514.2 601C471.3 601 428.7 601 385.8 601C343 601 300 601 257.2 601C214.3 601 171.7 601 128.8 601C86 601 43 601 21.5 601L0 601Z" fill="#2451a2"></path><path d="M0 482L21.5 484.5C43 487 86 492 128.8 491.8C171.7 491.7 214.3 486.3 257.2 486.7C300 487 343 493 385.8 495.5C428.7 498 471.3 497 514.2 502.3C557 507.7 600 519.3 642.8 522.5C685.7 525.7 728.3 520.3 771.2 517.5C814 514.7 857 514.3 878.5 514.2L900 514L900 601L878.5 601C857 601 814 601 771.2 601C728.3 601 685.7 601 642.8 601C600 601 557 601 514.2 601C471.3 601 428.7 601 385.8 601C343 601 300 601 257.2 601C214.3 601 171.7 601 128.8 601C86 601 43 601 21.5 601L0 601Z" fill="#2c5ac8"></path><path d="M0 565L21.5 562.5C43 560 86 555 128.8 549.8C171.7 544.7 214.3 539.3 257.2 538.7C300 538 343 542 385.8 544.3C428.7 546.7 471.3 547.3 514.2 547.3C557 547.3 600 546.7 642.8 550.3C685.7 554 728.3 562 771.2 566C814 570 857 570 878.5 570L900 570L900 601L878.5 601C857 601 814 601 771.2 601C728.3 601 685.7 601 642.8 601C600 601 557 601 514.2 601C471.3 601 428.7 601 385.8 601C343 601 300 601 257.2 601C214.3 601 171.7 601 128.8 601C86 601 43 601 21.5 601L0 601Z" fill="#4361ee"></path></svg>