<svg id="visual" viewBox="0 0 900 600" width="900" height="600" xmlns="http://www.w3.org/2000/svg" xmlns:xlink="http://www.w3.org/1999/xlink" version="1.1"><path d="M0 308L21.5 322.7C43 337.3 86 366.7 128.8 380C171.7 393.3 214.3 390.7 257.2 381.8C300 373 343 358 385.8 356.5C428.7 355 471.3 367 514.2 367.8C557 368.7 600 358.3 642.8 353C685.7 347.7 728.3 347.3 771.2 352.5C814 357.7 857 368.3 878.5 373.7L900 379L900 601L878.5 601C857 601 814 601 771.2 601C728.3 601 685.7 601 642.8 601C600 601 557 601 514.2 601C471.3 601 428.7 601 385.8 601C343 601 300 601 257.2 601C214.3 601 171.7 601 128.8 601C86 601 43 601 21.5 601L0 601Z" fill="#4361ee"></path><path d="M0 391L21.5 392.3C43 393.7 86 396.3 128.8 398.3C171.7 400.3 214.3 401.7 257.2 411.8C300 422 343 441 385.8 435.3C428.7 429.7 471.3 399.3 514.2 390.3C557 381.3 600 393.7 642.8 395.7C685.7 397.7 728.3 389.3 771.2 383.7C814 378 857 375 878.5 373.5L900 372L900 601L878.5 601C857 601 814 601 771.2 601C728.3 601 685.7 601 642.8 601C600 601 557 601 514.2 601C471.3 601 428.7 601 385.8 601C343 601 300 601 257.2 601C214.3 601 171.7 601 128.8 601C86 601 43 601 21.5 601L0 601Z" fill="#2757bc"></path><path d="M0 482L21.5 476.7C43 471.3 86 460.7 128.8 465.2C171.7 469.7 214.3 489.3 257.2 503.7C300 518 343 527 385.8 521.3C428.7 515.7 471.3 495.3 514.2 493.2C557 491 600 507 642.8 510.7C685.7 514.3 728.3 505.7 771.2 493.5C814 481.3 857 465.7 878.5 457.8L900 450L900 601L878.5 601C857 601 814 601 771.2 601C728.3 601 685.7 601 642.8 601C600 601 557 601 514.2 601C471.3 601 428.7 601 385.8 601C343 601 300 601 257.2 601C214.3 601 171.7 601 128.8 601C86 601 43 601 21.5 601L0 601Z" fill="#264a88"></path><path d="M0 552L21.5 543.7C43 535.3 86 518.7 128.8 519.7C171.7 520.7 214.3 539.3 257.2 537.2C300 535 343 512 385.8 508C428.7 504 471.3 519 514.2 536.2C557 553.3 600 572.7 642.8 576.2C685.7 579.7 728.3 567.3 771.2 551.3C814 535.3 857 515.7 878.5 505.8L900 496L900 601L878.5 601C857 601 814 601 771.2 601C728.3 601 685.7 601 642.8 601C600 601 557 601 514.2 601C471.3 601 428.7 601 385.8 601C343 601 300 601 257.2 601C214.3 601 171.7 601 128.8 601C86 601 43 601 21.5 601L0 601Z" fill="#2b3a56"></path></svg>