<svg id="visual" viewBox="0 0 900 600" width="900" height="600" xmlns="http://www.w3.org/2000/svg" xmlns:xlink="http://www.w3.org/1999/xlink" version="1.1"><path d="M0 127L82 151L164 163L245 85L327 145L409 127L491 145L573 79L655 133L736 127L818 145L900 103L900 0L818 0L736 0L655 0L573 0L491 0L409 0L327 0L245 0L164 0L82 0L0 0Z" fill="#ffffff"></path><path d="M0 253L82 265L164 229L245 127L327 205L409 241L491 235L573 187L655 193L736 211L818 253L900 187L900 101L818 143L736 125L655 131L573 77L491 143L409 125L327 143L245 83L164 161L82 149L0 125Z" fill="#e2e5ed"></path><path d="M0 355L82 397L164 415L245 265L327 295L409 367L491 427L573 415L655 283L736 373L818 439L900 289L900 185L818 251L736 209L655 191L573 185L491 233L409 239L327 203L245 125L164 227L82 263L0 251Z" fill="#c5ccdc"></path><path d="M0 427L82 445L164 469L245 325L327 391L409 457L491 517L573 511L655 367L736 421L818 523L900 361L900 287L818 437L736 371L655 281L573 413L491 425L409 365L327 293L245 263L164 413L82 395L0 353Z" fill="#a8b4cb"></path><path d="M0 601L82 601L164 601L245 601L327 601L409 601L491 601L573 601L655 601L736 601L818 601L900 601L900 359L818 521L736 419L655 365L573 509L491 515L409 455L327 389L245 323L164 467L82 443L0 425Z" fill="#8c9cba"></path></svg>