<svg id="visual" viewBox="0 0 900 600" width="900" height="600" xmlns="http://www.w3.org/2000/svg" xmlns:xlink="http://www.w3.org/1999/xlink" version="1.1"><path d="M0 139L82 139L82 91L164 91L164 217L245 217L245 103L327 103L327 97L409 97L409 121L491 121L491 199L573 199L573 133L655 133L655 265L736 265L736 193L818 193L818 175L900 175L900 163L900 0L900 0L818 0L818 0L736 0L736 0L655 0L655 0L573 0L573 0L491 0L491 0L409 0L409 0L327 0L327 0L245 0L245 0L164 0L164 0L82 0L82 0L0 0Z" fill="#8c9cba"></path><path d="M0 259L82 259L82 199L164 199L164 271L245 271L245 211L327 211L327 187L409 187L409 163L491 163L491 259L573 259L573 235L655 235L655 319L736 319L736 241L818 241L818 253L900 253L900 205L900 161L900 173L818 173L818 191L736 191L736 263L655 263L655 131L573 131L573 197L491 197L491 119L409 119L409 95L327 95L327 101L245 101L245 215L164 215L164 89L82 89L82 137L0 137Z" fill="#7490ca"></path><path d="M0 433L82 433L82 439L164 439L164 451L245 451L245 403L327 403L327 415L409 415L409 397L491 397L491 415L573 415L573 367L655 367L655 415L736 415L736 421L818 421L818 445L900 445L900 397L900 203L900 251L818 251L818 239L736 239L736 317L655 317L655 233L573 233L573 257L491 257L491 161L409 161L409 185L327 185L327 209L245 209L245 269L164 269L164 197L82 197L82 257L0 257Z" fill="#5e82d9"></path><path d="M0 469L82 469L82 475L164 475L164 523L245 523L245 487L327 487L327 505L409 505L409 451L491 451L491 499L573 499L573 457L655 457L655 511L736 511L736 523L818 523L818 499L900 499L900 481L900 395L900 443L818 443L818 419L736 419L736 413L655 413L655 365L573 365L573 413L491 413L491 395L409 395L409 413L327 413L327 401L245 401L245 449L164 449L164 437L82 437L82 431L0 431Z" fill="#4c73e5"></path><path d="M0 601L82 601L82 601L164 601L164 601L245 601L245 601L327 601L327 601L409 601L409 601L491 601L491 601L573 601L573 601L655 601L655 601L736 601L736 601L818 601L818 601L900 601L900 601L900 479L900 497L818 497L818 521L736 521L736 509L655 509L655 455L573 455L573 497L491 497L491 449L409 449L409 503L327 503L327 485L245 485L245 521L164 521L164 473L82 473L82 467L0 467Z" fill="#4361ee"></path></svg>