<svg id="visual" viewBox="0 0 900 600" width="900" height="600" xmlns="http://www.w3.org/2000/svg" xmlns:xlink="http://www.w3.org/1999/xlink" version="1.1"><rect x="0" y="0" width="900" height="600" fill="#4361EE"></rect><path d="M0 308L13.7 309.2C27.3 310.3 54.7 312.7 82 318C109.3 323.3 136.7 331.7 163.8 337.3C191 343 218 346 245.2 357.7C272.3 369.3 299.7 389.7 327 399.5C354.3 409.3 381.7 408.7 409 397.8C436.3 387 463.7 366 491 352.5C518.3 339 545.7 333 573 342.5C600.3 352 627.7 377 654.8 376.8C682 376.7 709 351.3 736.2 331.8C763.3 312.3 790.7 298.7 818 291.3C845.3 284 872.7 283 886.3 282.5L900 282L900 601L886.3 601C872.7 601 845.3 601 818 601C790.7 601 763.3 601 736.2 601C709 601 682 601 654.8 601C627.7 601 600.3 601 573 601C545.7 601 518.3 601 491 601C463.7 601 436.3 601 409 601C381.7 601 354.3 601 327 601C299.7 601 272.3 601 245.2 601C218 601 191 601 163.8 601C136.7 601 109.3 601 82 601C54.7 601 27.3 601 13.7 601L0 601Z" fill="#2B3A56" stroke-linecap="round" stroke-linejoin="miter"></path></svg>