<svg id="visual" viewBox="0 0 900 600" width="900" height="600" xmlns="http://www.w3.org/2000/svg" xmlns:xlink="http://www.w3.org/1999/xlink" version="1.1"><rect x="0" y="0" width="900" height="600" fill="#4361EE"></rect><path d="M0 417L13.7 417.8C27.3 418.7 54.7 420.3 82 423.7C109.3 427 136.7 432 163.8 435.5C191 439 218 441 245.2 448.3C272.3 455.7 299.7 468.3 327 474.3C354.3 480.3 381.7 479.7 409 472.8C436.3 466 463.7 453 491 444.7C518.3 436.3 545.7 432.7 573 438.7C600.3 444.7 627.7 460.3 654.8 460.3C682 460.3 709 444.7 736.2 432.5C763.3 420.3 790.7 411.7 818 407C845.3 402.3 872.7 401.7 886.3 401.3L900 401L900 601L886.3 601C872.7 601 845.3 601 818 601C790.7 601 763.3 601 736.2 601C709 601 682 601 654.8 601C627.7 601 600.3 601 573 601C545.7 601 518.3 601 491 601C463.7 601 436.3 601 409 601C381.7 601 354.3 601 327 601C299.7 601 272.3 601 245.2 601C218 601 191 601 163.8 601C136.7 601 109.3 601 82 601C54.7 601 27.3 601 13.7 601L0 601Z" fill="#2B3A56" stroke-linecap="round" stroke-linejoin="miter"></path></svg>