<svg xmlns="http://www.w3.org/2000/svg" width="1920" height="860" viewBox="0 0 1920 860" fill="none"><g clip-path="url(#clip0_759_10780)"><mask id="mask0_759_10780" style="mask-type:alpha" maskUnits="userSpaceOnUse" x="0" y="0" width="1920" height="860"><rect width="1920" height="860" fill="#D9D9D9"></rect></mask><g mask="url(#mask0_759_10780)"></g><g opacity="0.35" clip-path="url(#clip1_759_10780)"><g opacity="0.12"><g style="mix-blend-mode:lighten"><g style="mix-blend-mode:lighten" opacity="0.2"><path d="M2114.69 -334.705C1998.56 -25.5155 1629.73 34.0265 1439.3 -100.752C1047.76 -377.87 521.512 -357.973 358.53 15.4517C146.279 501.76 -214.655 422.691 -396.434 348.701" stroke="#001A25" stroke-width="0.602216" stroke-miterlimit="10"></path></g><g style="mix-blend-mode:lighten" opacity="0.23"><path d="M2115.44 -332.12C2041.14 -111.557 1832.83 -11.1155 1660.66 -28.433C1584.22 -36.1236 1511.18 -60.7656 1454.42 -103.959C1355.88 -178.946 1246.65 -232.01 1133.81 -261.126C816.476 -343.001 504.722 -245.532 374.181 30.597C349.42 82.9718 323.207 128.787 295.088 168.302C64.4532 489.684 -232.816 438.492 -389.454 374.737" stroke="#001A25" stroke-width="0.680504" stroke-miterlimit="10"></path></g><g style="mix-blend-mode:lighten" opacity="0.25"><path d="M2116.19 -329.528C2048.05 -102.597 1833.42 3.93517 1668.49 -23.6996C1595.38 -35.9486 1524.55 -62.2104 1469.53 -107.159C1373.13 -185.93 1264.32 -240.428 1148.59 -267.605C831.946 -341.962 529.967 -229.148 389.827 45.7443C363.593 97.2046 336.328 142.445 306.338 180.902C60.7531 495.803 -231.066 462.406 -382.481 400.774" stroke="#001A25" stroke-width="0.758792" stroke-miterlimit="10"></path></g><g style="mix-blend-mode:lighten" opacity="0.28"><path d="M2116.94 -326.944C2054.95 -93.6435 1834.31 19.0603 1676.31 -18.9744C1606.66 -35.7419 1537.93 -63.6987 1484.66 -110.368C1390.37 -192.975 1282.03 -248.892 1163.37 -274.091C847.556 -341.159 555.349 -212.805 405.48 60.8876C377.805 111.428 349.366 156.044 317.598 193.494C56.3411 501.469 -229.303 486.309 -375.501 426.804" stroke="#001A25" stroke-width="0.834069" stroke-miterlimit="10"></path></g><g style="mix-blend-mode:lighten" opacity="0.3"><path d="M2117.7 -324.355C2061.86 -84.6866 1835.5 34.3341 1684.14 -14.2445C1618.04 -35.4593 1551.31 -65.2114 1499.78 -113.572C1407.61 -200.067 1299.79 -257.392 1178.16 -280.574C863.282 -340.575 580.864 -196.48 421.13 76.0314C392.041 125.657 362.392 169.643 328.853 206.091C51.8407 507.13 -227.548 510.22 -368.523 452.838" stroke="#001A25" stroke-width="0.912357" stroke-miterlimit="10"></path></g><g style="mix-blend-mode:lighten" opacity="0.33"><path d="M2118.44 -321.769C2068.76 -75.734 1836.97 49.8231 1691.96 -9.51957C1629.51 -35.0738 1564.69 -66.7622 1514.89 -116.78C1424.86 -207.216 1317.59 -265.945 1192.94 -287.059C879.108 -340.212 606.508 -180.159 436.777 91.1753C406.305 139.887 375.404 183.239 340.107 218.686C47.2566 512.772 -225.795 534.127 -361.549 478.872" stroke="#001A25" stroke-width="0.990645" stroke-miterlimit="10"></path></g><g style="mix-blend-mode:lighten" opacity="0.35"><path d="M2119.2 -319.179C2075.67 -66.7752 1838.68 65.5985 1699.79 -4.78769C1641.07 -34.5445 1578.1 -68.3338 1530.02 -119.982C1442.12 -214.404 1335.42 -274.54 1207.72 -293.537C895.028 -340.049 632.289 -163.822 452.424 106.328C420.597 154.134 388.407 196.84 351.359 231.291C42.5991 518.402 -224.043 558.046 -354.574 504.915" stroke="#001A25" stroke-width="1.06893" stroke-miterlimit="10"></path></g><g style="mix-blend-mode:lighten" opacity="0.38"><path d="M2119.95 -316.594C2082.57 -57.8209 1840.55 81.7017 1707.61 -0.0611349C1652.66 -33.8605 1591.51 -69.9396 1545.13 -123.189C1459.39 -221.645 1353.29 -283.196 1222.5 -300.023C911.02 -340.095 658.192 -147.474 468.068 121.468C434.908 168.372 401.4 210.425 362.608 243.884C37.8678 523.986 -222.292 581.95 -347.604 530.946" stroke="#001A25" stroke-width="1.14722" stroke-miterlimit="10"></path></g><g style="mix-blend-mode:lighten" opacity="0.41"><path d="M2120.7 -314.006C2089.47 -48.8633 1842.5 98.1812 1715.43 4.66887C1664.25 -32.9964 1604.93 -71.5678 1560.25 -126.393C1476.69 -228.931 1371.18 -291.903 1237.28 -306.503C927.078 -340.33 684.225 -131.083 483.719 136.617C449.254 182.63 414.388 224.015 373.865 256.482C33.084 529.536 -220.534 605.862 -340.624 556.981" stroke="#001A25" stroke-width="1.2225" stroke-miterlimit="10"></path></g><g style="mix-blend-mode:lighten" opacity="0.43"><path d="M2121.45 -311.416C2096.38 -39.9056 1844.42 115.041 1723.26 9.39665C1675.81 -31.9703 1618.38 -73.221 1575.37 -129.599C1494.01 -236.256 1389.09 -300.67 1252.06 -312.988C943.186 -340.752 710.378 -114.654 499.364 151.759C463.619 196.889 427.366 237.589 385.116 269.076C28.2353 535.04 -218.785 629.768 -333.653 583.014" stroke="#001A25" stroke-width="1.30079" stroke-miterlimit="10"></path></g><g style="mix-blend-mode:lighten" opacity="0.46"><path d="M2122.2 -308.831C2103.28 -30.9537 1846.2 132.254 1731.08 14.123C1687.31 -30.7905 1631.84 -74.8987 1590.49 -132.806C1511.37 -243.622 1407.02 -309.497 1266.84 -319.472C959.343 -341.351 736.648 -98.1706 515.017 166.904C478.01 211.166 440.346 251.163 396.375 281.673C23.3515 540.498 -217.025 653.677 -326.67 609.048" stroke="#001A25" stroke-width="1.37907" stroke-miterlimit="10"></path></g><g style="mix-blend-mode:lighten" opacity="0.48"><path d="M2122.95 -306.243C2110.18 -21.9968 1847.76 149.783 1738.91 18.853C1698.72 -29.4857 1645.32 -76.5884 1605.61 -136.009C1528.76 -251.018 1424.97 -318.387 1281.63 -325.951C975.524 -342.108 763.026 -81.6158 530.665 182.051C492.414 225.452 453.318 264.732 407.629 294.272C18.4172 545.91 -215.269 677.59 -319.697 635.086" stroke="#001A25" stroke-width="1.45736" stroke-miterlimit="10"></path></g><g style="mix-blend-mode:lighten" opacity="0.51"><path d="M2123.7 -303.658C2117.08 -13.0428 1849.02 167.55 1746.73 23.5793C1710.02 -28.0908 1658.82 -78.3017 1620.73 -139.217C1546.18 -258.45 1442.93 -327.342 1296.41 -332.438C991.725 -343.034 789.5 -64.9946 546.312 197.193C506.838 239.751 466.281 278.293 418.882 306.864C13.4513 551.263 -213.516 701.492 -312.72 661.114" stroke="#001A25" stroke-width="1.53565" stroke-miterlimit="10"></path></g><g style="mix-blend-mode:lighten" opacity="0.54"><path d="M2124.45 -301.068C2123.99 -4.08382 1849.96 185.498 1754.56 28.3076C1721.2 -26.6386 1672.34 -80.0244 1635.85 -142.422C1563.64 -265.905 1460.89 -336.362 1311.19 -338.92C1007.94 -344.102 816.074 -48.2885 561.959 212.338C521.277 254.063 479.246 291.847 430.135 319.461C8.45823 556.574 -211.763 725.404 -305.747 687.15" stroke="#001A25" stroke-width="1.61093" stroke-miterlimit="10"></path></g><g style="mix-blend-mode:lighten" opacity="0.56"><path d="M2125.2 -298.481C2130.89 4.86844 1850.56 203.539 1762.38 33.0359C1732.28 -25.1605 1685.87 -81.7591 1650.96 -145.627C1581.13 -273.383 1478.85 -345.448 1325.97 -345.404C1024.16 -345.314 842.732 -31.4996 577.606 227.483C535.728 268.39 492.204 305.395 441.388 332.057C3.44314 561.83 -210.01 749.312 -298.771 713.184" stroke="#001A25" stroke-width="1.68921" stroke-miterlimit="10"></path></g><g style="mix-blend-mode:lighten" opacity="0.59"><path d="M2125.96 -295.894C2137.8 13.8249 1850.84 221.613 1770.21 37.7646C1743.26 -23.6766 1699.44 -83.5018 1666.09 -148.832C1598.69 -280.879 1496.82 -354.603 1340.75 -351.885C1040.39 -346.654 869.478 -14.6163 593.26 242.631C550.201 282.732 505.171 318.945 452.648 344.658C-1.58234 567.042 -208.25 773.227 -291.79 739.223" stroke="#001A25" stroke-width="1.7675" stroke-miterlimit="10"></path></g><g style="mix-blend-mode:lighten" opacity="0.61"><path d="M2126.7 -293.309C2144.7 22.7789 1850.81 239.664 1778.03 42.4917C1754.14 -22.217 1713.02 -85.2516 1681.21 -152.039C1616.27 -288.39 1514.78 -363.83 1355.54 -358.372C1056.6 -348.125 896.291 2.35419 608.909 257.77C564.678 297.082 518.129 332.477 463.905 357.249C-6.62328 572.198 -206.492 797.129 -284.811 765.252" stroke="#001A25" stroke-width="1.84579" stroke-miterlimit="10"></path></g><g style="mix-blend-mode:lighten" opacity="0.64"><path d="M2127.46 -290.717C2151.6 31.7398 1850.52 257.657 1785.85 47.2212C1764.96 -20.7822 1726.61 -87.0065 1696.33 -155.243C1633.89 -295.913 1532.73 -373.123 1370.32 -364.852C1072.8 -349.701 923.171 19.4291 624.558 272.92C579.165 311.452 531.086 346.016 475.157 369.848C-11.6776 577.315 -204.739 821.043 -277.838 791.289" stroke="#001A25" stroke-width="1.92408" stroke-miterlimit="10"></path></g><g style="mix-blend-mode:lighten" opacity="0.66"><path d="M2128.2 -288.133C2158.51 40.692 1850 275.55 1793.68 51.9465C1775.71 -19.3944 1740.23 -88.7673 1711.45 -158.449C1651.56 -303.441 1550.67 -382.487 1385.1 -371.334C1088.97 -351.391 950.101 36.6002 640.204 288.065C593.655 325.834 544.038 359.544 486.408 382.446C-16.7338 582.386 -202.989 844.952 -270.864 817.324" stroke="#001A25" stroke-width="2.00237" stroke-miterlimit="10"></path></g><g style="mix-blend-mode:lighten" opacity="0.69"><path d="M2128.96 -285.545C2165.41 49.6465 1849.3 293.34 1801.5 56.6762C1786.41 -18.0452 1753.86 -90.5256 1726.57 -161.653C1669.26 -310.975 1568.6 -391.917 1399.88 -377.817C1105.13 -353.179 977.092 53.8735 655.857 303.21C608.16 340.231 557.001 373.07 497.668 395.043C-21.7837 587.418 -201.228 868.864 -263.883 843.36" stroke="#001A25" stroke-width="2.07764" stroke-miterlimit="10"></path></g><g style="mix-blend-mode:lighten" opacity="0.72"><path d="M2129.71 -282.959C2172.31 58.6046 1848.45 311.017 1809.33 61.4037C1797.08 -16.7472 1767.51 -92.2849 1741.69 -164.859C1687 -318.513 1586.51 -401.423 1414.66 -384.299C1121.25 -355.064 1004.12 71.2462 671.498 318.355C622.656 354.641 569.952 386.588 508.914 407.641C-26.8434 592.411 -199.48 892.772 -256.914 869.395" stroke="#001A25" stroke-width="2.15593" stroke-miterlimit="10"></path></g><g style="mix-blend-mode:lighten" opacity="0.74"><path d="M2130.46 -280.372C2179.22 67.5587 1847.49 328.575 1817.15 66.1302C1807.72 -15.4929 1781.18 -94.0455 1756.81 -168.066C1704.78 -326.052 1604.4 -410.999 1429.45 -390.786C1137.35 -357.036 1031.18 88.7128 687.149 333.498C637.166 369.061 582.91 400.105 520.172 420.232C-31.8909 597.363 -197.722 916.678 -249.936 895.424" stroke="#001A25" stroke-width="2.23422" stroke-miterlimit="10"></path></g><g style="mix-blend-mode:lighten" opacity="0.77"><path d="M2131.21 -277.782C2186.12 76.5144 1846.45 346.022 1824.97 70.8618C1818.33 -14.2739 1794.86 -95.799 1771.92 -171.268C1722.6 -333.583 1622.27 -420.64 1444.22 -397.264C1153.4 -359.082 1058.28 106.286 702.796 348.649C651.674 383.501 595.869 413.623 531.423 432.836C-36.9359 602.292 -195.971 940.593 -242.962 921.466" stroke="#001A25" stroke-width="2.31251" stroke-miterlimit="10"></path></g><g style="mix-blend-mode:lighten" opacity="0.79"><path d="M2131.96 -275.196C2193.03 85.4711 1845.35 363.359 1832.8 75.5879C1828.93 -13.1042 1808.55 -97.5524 1787.04 -174.475C1740.45 -341.117 1640.11 -430.355 1459.01 -403.748C1169.41 -361.208 1085.4 123.953 718.445 363.791C666.19 397.947 608.83 427.129 542.681 445.43C-41.9674 607.18 -194.213 964.501 -235.984 947.498" stroke="#001A25" stroke-width="2.3908" stroke-miterlimit="10"></path></g><g style="mix-blend-mode:lighten" opacity="0.82"><path d="M2132.71 -272.609C2199.93 94.4249 1844.2 380.598 1840.63 80.314C1839.52 -11.9685 1822.26 -99.3031 1802.16 -177.683C1758.33 -348.64 1657.93 -440.136 1473.79 -410.235C1185.38 -363.403 1112.54 141.712 734.095 378.934C680.704 412.402 621.792 440.632 553.935 458.026C-46.9942 612.043 -192.46 988.408 -229.007 973.531" stroke="#001A25" stroke-width="2.46607" stroke-miterlimit="10"></path></g><g style="mix-blend-mode:lighten" opacity="0.85"><path d="M2133.46 -270.02C2206.84 103.382 1843.03 397.748 1848.45 85.0441C1850.11 -10.8652 1835.98 -101.043 1817.28 -180.886C1776.24 -356.154 1675.72 -449.982 1488.57 -416.715C1201.31 -365.653 1139.7 159.57 749.743 394.08C695.214 426.871 634.753 454.138 565.19 470.624C-52.0107 616.881 -190.701 1012.32 -222.031 999.567" stroke="#001A25" stroke-width="2.54436" stroke-miterlimit="10"></path></g><g style="mix-blend-mode:lighten" opacity="0.87"><path d="M2134.21 -267.433C2213.74 112.338 1841.85 414.815 1856.28 89.773C1860.7 -9.7902 1849.71 -102.781 1832.4 -184.091C1794.18 -363.66 1693.48 -459.894 1503.35 -423.198C1217.19 -367.964 1166.86 177.512 765.392 409.226C709.728 441.352 647.717 467.641 576.444 483.219C-57.0171 621.694 -188.949 1036.23 -215.055 1025.6" stroke="#001A25" stroke-width="2.62265" stroke-miterlimit="10"></path></g><g style="mix-blend-mode:lighten" opacity="0.9"><path d="M2134.96 -264.847C2220.64 121.293 1840.65 431.806 1864.1 94.5002C1871.27 -8.74748 1863.45 -104.515 1847.52 -187.297C1812.15 -371.157 1711.21 -469.875 1518.13 -429.681C1233.01 -370.329 1194.03 195.545 781.039 424.369C724.236 455.843 660.678 481.137 587.698 495.814C-62.0132 626.483 -187.195 1060.13 -208.08 1051.63" stroke="#001A25" stroke-width="2.70094" stroke-miterlimit="10"></path></g><g style="mix-blend-mode:lighten" opacity="0.92"><path d="M2135.71 -262.258C2227.54 130.249 1839.45 448.736 1871.92 99.2283C1881.86 -7.72657 1877.2 -106.24 1862.64 -190.504C1830.14 -378.643 1728.9 -479.918 1532.92 -436.167C1248.79 -372.738 1221.2 213.655 796.689 439.513C738.747 470.342 673.648 494.63 598.953 508.41C-66.996 631.251 -185.44 1084.04 -201.102 1077.67" stroke="#001A25" stroke-width="2.77923" stroke-miterlimit="10"></path></g><g style="mix-blend-mode:lighten" opacity="0.95"><path d="M2136.47 -259.673C2234.45 139.205 1838.26 465.604 1879.75 103.957C1892.44 -6.72281 1890.95 -107.957 1877.76 -193.708C1848.16 -386.115 1746.56 -490.021 1547.7 -442.647C1264.51 -375.185 1248.37 231.853 812.338 454.659C753.255 484.849 686.599 508.024 610.206 521.009C-72.1275 635.075 -183.684 1107.95 -194.128 1103.7" stroke="#001A25" stroke-width="2.8545" stroke-miterlimit="10"></path></g><g style="mix-blend-mode:lighten" opacity="0.97"><path d="M2137.22 -257.084C2241.35 148.161 1837.08 482.421 1887.57 108.685C1903.03 -5.74385 1904.72 -109.672 1892.88 -196.914C1866.19 -393.578 1764.18 -500.185 1562.48 -449.13C1280.19 -377.675 1275.53 250.127 827.988 469.806C767.759 499.371 699.577 521.568 621.463 533.605C-77.0042 640.267 -181.931 1131.86 -187.151 1129.74" stroke="#001A25" stroke-width="2.93279" stroke-miterlimit="10"></path></g><g style="mix-blend-mode:lighten"><path d="M2137.97 -254.498C2248.26 157.115 1835.91 499.188 1895.4 113.412C1954.88 -272.366 1872.09 -534.613 1577.26 -455.615C1258.17 -370.114 1309.68 452.17 632.715 546.201C-81.8825 645.458 -180.175 1155.77 -180.175 1155.77" stroke="#001A25" stroke-width="3.01108" stroke-miterlimit="10"></path></g></g></g></g></g><defs><clipPath id="clip0_759_10780"><rect width="1920" height="860" fill="white"></rect></clipPath><clipPath id="clip1_759_10780"><rect width="2607.02" height="1147.92" fill="white" transform="translate(2503.2 313.09) rotate(165)"></rect></clipPath></defs></svg>