<svg xmlns="http://www.w3.org/2000/svg" width="30" height="30" viewBox="0 0 30 30" fill="none">
<path d="M30 26.8093C30 28.5717 28.5716 30 26.8096 30H3.19036C1.42843 30 0 28.5717 0 26.8093V3.19075C0 1.42828 1.42843 0 3.19036 0H26.8096C28.5716 0 30 1.42828 30 3.19075V26.8093Z" fill="#4361ee"/>
<path d="M5.01165 16.4741C4.67335 16.4741 4.33916 16.3168 4.1263 16.0217C3.77257 15.5333 3.8826 14.8505 4.37103 14.4978L10.4852 10.0762C10.7628 9.87567 11.1186 9.81706 11.4456 9.91783L17.2091 11.6916L24.9181 4.09881C25.3479 3.67619 26.0389 3.68133 26.4615 4.11012C26.8842 4.53994 26.879 5.23094 26.4502 5.65357L18.2775 13.7029C17.9916 13.9847 17.5741 14.0865 17.1906 13.9682L11.3243 12.1636L5.65124 16.2664C5.45689 16.4063 5.23273 16.4741 5.01165 16.4741Z" fill="white"/>
<path d="M5.01758 25.1909C4.6731 25.1909 4.33377 25.0284 4.12195 24.7241C3.77645 24.2295 3.89675 23.5498 4.39136 23.2043L11.8628 17.9806C12.1374 17.7883 12.486 17.7328 12.8058 17.8305L18.4788 19.557L25.0052 13.4387C25.4453 13.0264 26.1363 13.049 26.5487 13.4881C26.961 13.9282 26.9384 14.6192 26.4993 15.0315L19.5122 21.5817C19.2273 21.849 18.8212 21.9436 18.4479 21.8295L12.6782 20.0732L5.64174 24.9925C5.45151 25.1272 5.23352 25.1909 5.01758 25.1909Z" fill="white"/>
</svg>